<?xml version="1.0" standalone="no"?>
<!DOCTYPE svg PUBLIC "-//W3C//DTD SVG 20010904//EN"
 "http://www.w3.org/TR/2001/REC-SVG-20010904/DTD/svg10.dtd">
<svg version="1.0" xmlns="http://www.w3.org/2000/svg"
 width="600.000000pt" height="436.000000pt" viewBox="0 0 600.000000 436.000000"
 preserveAspectRatio="xMidYMid meet">

<g transform="translate(0.000000,436.000000) scale(0.100000,-0.100000)"
fill="#000000" stroke="none">
<path d="M3470 4069 c13 -23 13 -32 0 -24 -6 4 -24 8 -41 10 -29 4 -31 2 -25
-21 6 -21 4 -24 -11 -17 -34 16 -58 10 -55 -15 2 -12 -2 -22 -7 -22 -6 0 -11
4 -11 8 0 5 -13 9 -30 9 -30 0 -39 -10 -20 -22 6 -4 8 -11 4 -16 -3 -6 -11 -6
-17 -1 -7 4 -24 9 -40 10 -25 2 -27 0 -21 -26 6 -22 5 -25 -7 -15 -8 6 -26 9
-42 6 -22 -4 -25 -8 -16 -19 15 -18 4 -30 -13 -17 -7 5 -26 7 -43 3 -20 -3
-26 -8 -17 -13 25 -16 11 -24 -35 -19 -44 5 -47 4 -34 -12 16 -19 8 -33 -11
-20 -7 5 -20 9 -28 8 -8 -1 -22 -2 -29 -3 -12 -1 -12 -4 -3 -13 21 -21 13 -26
-29 -21 -40 6 -40 6 -33 -23 6 -24 5 -27 -7 -18 -8 7 -26 12 -41 12 -25 0 -27
-3 -22 -27 5 -21 4 -24 -7 -13 -7 6 -26 12 -42 12 -27 0 -29 -2 -22 -27 5 -21
4 -24 -7 -16 -7 6 -26 11 -41 11 -25 0 -28 -3 -23 -24 4 -14 2 -24 -4 -24 -5
0 -10 4 -10 8 0 5 -14 9 -31 9 -27 0 -30 -3 -24 -24 6 -25 -4 -30 -23 -11 -10
10 -15 10 -22 -2 -6 -10 -10 -11 -10 -3 0 7 -7 10 -15 7 -12 -5 -13 -9 -4 -20
15 -18 4 -31 -13 -16 -7 5 -25 8 -40 5 -23 -4 -26 -8 -17 -24 10 -20 0 -26
-17 -9 -8 8 -19 7 -38 0 -24 -9 -26 -13 -16 -25 18 -21 5 -31 -15 -12 -14 14
-31 14 -58 0 -4 -2 -2 -13 3 -24 13 -23 3 -25 -22 -2 -12 11 -18 12 -18 3 0
-6 -6 -10 -14 -7 -20 8 -27 -3 -15 -24 12 -22 -3 -26 -21 -5 -17 22 -63 0 -54
-26 3 -10 1 -18 -4 -18 -6 0 -12 5 -14 11 -2 6 -14 8 -32 3 -21 -5 -26 -11
-23 -25 6 -21 -3 -25 -19 -9 -8 8 -19 7 -38 0 -22 -8 -26 -13 -17 -24 6 -7 8
-16 4 -19 -3 -4 -11 0 -17 8 -11 15 -56 10 -56 -6 0 -5 14 -28 31 -52 23 -33
31 -57 35 -103 2 -32 1 -53 -2 -46 -11 24 -22 11 -22 -29 -1 -33 2 -38 13 -29
8 7 18 9 22 7 5 -3 40 8 78 24 39 16 80 28 93 26 14 -3 22 1 22 9 0 17 37 37
51 28 6 -3 17 4 26 15 11 17 21 21 43 16 22 -5 28 -2 33 16 5 17 11 21 32 17
19 -4 29 0 36 14 8 14 18 19 35 15 15 -3 24 0 24 9 0 18 18 27 50 26 20 0 30
5 33 20 5 16 11 19 35 13 25 -5 30 -2 35 16 5 17 11 21 31 17 19 -4 27 0 32
14 5 15 13 19 35 16 22 -3 30 0 35 15 5 14 13 18 35 15 19 -3 29 0 29 8 0 16
30 33 47 27 6 -2 21 5 32 16 12 12 27 18 36 14 10 -3 22 3 31 16 11 16 22 19
40 15 17 -4 24 -2 24 9 0 17 27 30 42 21 5 -3 16 4 25 16 11 15 22 20 37 16
15 -4 26 1 34 15 10 15 20 19 37 15 17 -4 24 -1 28 15 5 17 11 20 32 17 19 -4
29 0 36 14 8 14 18 19 35 15 16 -3 24 0 24 9 0 15 43 29 59 19 6 -3 11 1 11
10 0 10 22 26 58 43 46 22 72 27 137 27 86 1 99 5 116 37 7 13 7 18 1 14 -6
-3 -17 3 -25 14 -15 21 -15 21 -34 -6 -21 -28 -43 -26 -43 5 0 25 20 41 51 41
15 0 29 7 33 16 3 8 2 13 -3 9 -5 -3 -21 -1 -35 4 -20 8 -24 7 -19 -4 3 -10
-1 -15 -14 -15 -22 0 -53 -29 -53 -51 0 -8 -7 -4 -16 9 -15 22 -15 42 1 102 4
16 4 21 -3 12 -7 -10 -11 -10 -21 2 -7 8 -18 13 -26 10 -7 -3 -16 -1 -19 4 -3
5 3 12 14 15 11 3 20 10 20 17 0 6 -4 8 -10 5 -5 -3 -15 -3 -22 1 -6 4 -24 8
-39 9 -25 2 -27 0 -19 -16z m38 -51 c7 -7 12 -18 12 -26 0 -11 -3 -10 -15 2
-9 8 -22 13 -30 10 -8 -4 -15 -2 -15 4 0 9 14 19 31 21 3 1 10 -4 17 -11z
m-68 -33 c17 -20 11 -24 -23 -18 -22 4 -25 8 -16 19 15 18 24 18 39 -1z m-56
-57 c-4 -6 -10 -6 -17 1 -6 6 -20 11 -31 11 -21 1 -21 1 -2 15 17 13 22 13 38
-1 9 -9 15 -21 12 -26z m-70 -14 c4 -11 -1 -13 -22 -8 -35 9 -39 13 -23 24 17
10 38 3 45 -16z m-70 -29 c6 -17 4 -18 -18 -9 -20 8 -21 24 -2 24 8 0 16 -7
20 -15z m-74 -25 c20 -13 10 -19 -22 -13 -15 3 -25 9 -22 14 7 12 25 11 44 -1z
m-65 -30 c3 -5 3 -15 -1 -21 -6 -11 -23 6 -24 24 0 10 18 9 25 -3z m-65 -46
c0 -14 -3 -14 -15 -4 -8 7 -15 14 -15 16 0 2 7 4 15 4 8 0 15 -7 15 -16z m-72
-32 c6 -18 -15 -14 -22 4 -4 10 -1 14 6 12 6 -2 14 -10 16 -16z m-73 -23 c12
-19 -5 -23 -22 -6 -16 16 -16 17 -1 17 9 0 20 -5 23 -11z m-70 -30 c10 -15 -3
-25 -16 -12 -6 6 -18 9 -27 6 -10 -4 -13 -2 -8 5 9 15 43 16 51 1z m-70 -30
c12 -19 -5 -23 -22 -6 -16 16 -16 17 -1 17 9 0 20 -5 23 -11z m-68 -34 c9 -25
-2 -27 -22 -5 -17 18 -17 20 -1 20 9 0 19 -7 23 -15z m-77 -30 c14 -16 10 -18
-14 -9 -9 3 -16 10 -16 15 0 14 16 11 30 -6z m-63 -51 c-9 -10 -38 16 -31 28
4 6 13 4 22 -6 9 -8 13 -19 9 -22z m-70 -30 c-9 -10 -38 16 -31 28 4 6 13 4
22 -6 9 -8 13 -19 9 -22z m-77 -19 c0 -9 -6 -12 -15 -9 -8 4 -15 10 -15 15 0
5 7 9 15 9 8 0 15 -7 15 -15z m-71 -41 c3 -16 1 -17 -13 -5 -19 16 -21 34 -3
29 6 -3 14 -13 16 -24z m-74 -25 c11 -17 2 -18 -19 -3 -17 12 -17 14 -4 14 9
0 20 -5 23 -11z m-67 -37 c6 -18 -15 -14 -22 4 -4 10 -1 14 6 12 6 -2 14 -10
16 -16z m-74 -28 c4 -10 1 -14 -6 -12 -15 5 -23 28 -10 28 5 0 13 -7 16 -16z
m-74 -41 c0 -13 -3 -13 -15 -3 -8 7 -12 16 -9 21 8 13 24 1 24 -18z"/>
<path d="M3708 4053 c7 -3 16 -2 19 1 4 3 -2 6 -13 5 -11 0 -14 -3 -6 -6z"/>
<path d="M3650 4035 c-6 -8 -10 -19 -8 -24 1 -6 8 1 15 14 13 28 11 31 -7 10z"/>
<path d="M3875 3860 c-26 -10 -48 -36 -41 -48 10 -16 55 -20 67 -6 6 8 18 14
25 14 21 0 17 28 -5 40 -22 11 -19 11 -46 0z"/>
<path d="M3959 3749 c-15 -6 -29 -19 -32 -29 -6 -22 -3 -24 36 -34 24 -6 30
-3 34 14 4 17 8 19 14 8 7 -11 11 -10 18 2 7 10 5 20 -6 32 -18 20 -26 21 -64
7z"/>
<path d="M4040 3620 c-27 -27 -25 -37 8 -45 34 -7 82 9 82 28 0 38 -58 49 -90
17z"/>
<path d="M3742 3608 c-12 -6 -21 -16 -19 -22 4 -14 47 -21 47 -8 0 5 9 12 21
15 24 6 17 27 -9 26 -9 0 -27 -5 -40 -11z"/>
<path d="M3610 3593 c1 -14 27 -43 39 -43 12 0 14 11 5 34 -6 16 -44 23 -44 9z"/>
<path d="M3817 3538 c-34 -12 -36 -55 -2 -50 11 2 22 8 23 13 2 5 10 9 19 9
16 0 14 32 -2 36 -5 1 -23 -2 -38 -8z"/>
<path d="M3708 3484 c-30 -16 -32 -22 -20 -41 10 -16 77 17 77 38 0 19 -25 21
-57 3z"/>
<path d="M2945 3470 c-3 -5 -1 -10 4 -10 6 0 11 5 11 10 0 6 -2 10 -4 10 -3 0
-8 -4 -11 -10z"/>
<path d="M2905 3440 c-3 -5 1 -10 9 -10 8 0 18 5 21 10 3 6 -1 10 -9 10 -8 0
-18 -4 -21 -10z"/>
<path d="M3810 3355 c-16 -19 28 -69 53 -59 22 8 21 16 -4 48 -23 30 -32 32
-49 11z"/>
<path d="M2642 3301 c4 -13 18 -16 19 -4 0 4 -5 9 -11 12 -7 2 -11 -2 -8 -8z"/>
<path d="M4235 3280 c-3 -5 -1 -10 4 -10 6 0 11 5 11 10 0 6 -2 10 -4 10 -3 0
-8 -4 -11 -10z"/>
<path d="M1834 3186 c-51 -22 -55 -96 -6 -96 12 0 13 3 4 12 -23 23 -14 57 21
78 37 23 27 26 -19 6z"/>
<path d="M2425 3189 c-4 -6 -5 -13 -2 -16 7 -7 27 6 27 18 0 12 -17 12 -25 -2z"/>
<path d="M4458 3167 c-3 -19 -2 -25 4 -19 6 6 8 18 6 28 -3 14 -5 12 -10 -9z"/>
<path d="M4330 3171 c0 -6 4 -13 10 -16 6 -3 7 1 4 9 -7 18 -14 21 -14 7z"/>
<path d="M2455 3150 c3 -5 8 -10 11 -10 2 0 4 5 4 10 0 6 -5 10 -11 10 -5 0
-7 -4 -4 -10z"/>
<path d="M1862 3110 c-9 -37 -8 -40 12 -40 11 0 28 5 36 10 12 8 10 10 -10 10
-18 0 -21 3 -11 9 10 7 11 13 2 30 -7 11 -13 21 -15 21 -2 0 -8 -18 -14 -40z"/>
<path d="M2273 3118 c-24 -12 -30 -32 -12 -43 14 -9 81 24 76 38 -5 16 -37 18
-64 5z"/>
<path d="M1520 3076 c-52 -24 -131 -60 -175 -81 -98 -45 -157 -73 -257 -118
-43 -20 -78 -39 -78 -42 0 -10 42 -87 57 -106 8 -9 15 -25 17 -35 3 -11 9 -32
15 -47 15 -38 -17 -51 434 167 98 47 183 86 188 86 17 0 9 41 -17 88 -25 44
-83 132 -87 132 -1 0 -45 -20 -97 -44z"/>
<path d="M4281 3088 c-18 -5 -44 -16 -58 -25 -21 -14 -22 -17 -8 -33 19 -21
19 -30 1 -30 -8 0 -17 9 -21 20 -6 19 -8 19 -37 4 -28 -14 -29 -17 -14 -33 22
-25 7 -35 -18 -13 -18 16 -25 17 -44 7 -15 -8 -20 -15 -13 -19 14 -9 14 -36 0
-36 -6 0 -13 8 -16 19 -4 16 -9 17 -34 8 -30 -12 -36 -21 -19 -32 6 -3 10 -13
10 -22 0 -13 -5 -12 -24 6 -17 16 -31 21 -45 16 -21 -6 -30 -35 -11 -35 6 0
10 -7 10 -15 0 -22 -21 -18 -27 4 -4 17 -9 18 -34 9 -30 -10 -37 -22 -19 -33
16 -10 12 -35 -5 -29 -8 4 -15 12 -15 20 0 17 1 17 -39 3 -31 -11 -31 -12 -15
-30 10 -11 14 -22 10 -27 -4 -4 -15 2 -25 14 -13 17 -21 19 -39 11 -24 -11
-28 -27 -10 -45 6 -6 8 -15 4 -19 -4 -5 -15 1 -25 13 -13 17 -21 19 -44 11
-27 -9 -27 -10 -12 -33 14 -22 14 -24 0 -24 -9 0 -18 7 -21 15 -8 21 -37 19
-67 -5 -14 -11 -32 -20 -40 -20 -21 0 -32 -19 -18 -33 15 -15 14 -27 -3 -27
-8 0 -17 9 -21 20 -6 19 -8 19 -35 5 -16 -8 -33 -14 -37 -13 -4 2 -25 -10 -45
-25 -29 -23 -41 -26 -56 -18 -11 6 -22 17 -26 26 -8 22 -26 18 -26 -6 0 -14 5
-19 15 -16 8 4 17 2 21 -4 10 -17 -28 -38 -69 -39 -30 0 -40 -5 -49 -25 -6
-14 -18 -25 -26 -25 -8 0 -40 -15 -71 -34 -31 -18 -66 -37 -79 -41 -15 -4 -21
-12 -18 -21 3 -8 9 -21 12 -29 5 -11 2 -13 -10 -9 -9 3 -16 12 -16 20 0 19 -8
18 -61 -7 -161 -76 -169 -81 -149 -94 5 -3 10 -13 10 -22 0 -13 -3 -13 -15 -3
-8 7 -15 19 -15 27 0 12 -3 12 -21 -1 -12 -8 -27 -12 -34 -10 -7 3 -15 -2 -18
-10 -4 -9 -13 -16 -21 -16 -8 0 -28 -8 -45 -17 -24 -14 -35 -15 -48 -7 -29 18
-60 -2 -59 -37 1 -31 22 -40 28 -12 2 12 16 -2 46 -46 35 -52 42 -71 42 -110
l-1 -46 -25 30 c-15 17 -23 24 -19 17 4 -7 7 -38 7 -68 1 -30 4 -54 8 -54 3 0
35 14 69 30 35 17 65 29 67 27 9 -9 -125 -67 -147 -65 -22 3 -24 -1 -25 -42 0
-25 -1 -51 -2 -57 -2 -16 -34 -17 -48 -3 -8 8 -15 6 -24 -5 -10 -12 -9 -20 5
-41 10 -16 22 -23 32 -20 13 5 14 4 3 -9 -10 -12 -10 -18 -1 -29 11 -13 17
-12 49 1 23 10 38 11 40 5 2 -6 16 -29 33 -51 23 -32 36 -41 59 -41 27 0 30
-3 30 -32 0 -55 49 -165 121 -271 38 -56 69 -106 69 -112 0 -5 -106 -65 -235
-133 -129 -68 -235 -127 -235 -132 0 -4 6 -12 13 -18 9 -8 27 -4 67 14 30 14
62 29 70 34 34 22 114 60 117 56 3 -2 -4 -13 -13 -25 -13 -15 -21 -18 -31 -9
-9 7 -13 7 -13 -1 0 -6 4 -11 8 -11 5 0 14 -11 22 -24 7 -13 21 -27 31 -29 10
-3 23 -17 29 -31 18 -48 25 -26 16 49 -7 50 -14 75 -23 75 -7 0 -13 4 -13 9 0
22 44 -6 78 -50 58 -76 90 -57 63 37 -5 19 -5 37 0 45 8 11 13 9 30 -11 47
-58 59 -70 68 -70 5 0 9 28 10 61 0 34 3 64 6 67 9 9 94 -91 88 -102 -3 -5 -2
-6 4 -3 5 3 8 40 5 87 -2 44 0 80 4 80 5 0 22 -18 38 -40 16 -21 33 -37 38
-34 5 3 8 2 7 -3 -3 -17 1 -33 9 -33 4 0 8 32 9 72 2 39 6 74 9 77 3 3 14 -5
25 -19 10 -14 26 -32 34 -41 8 -9 15 -21 15 -27 0 -7 5 -12 10 -12 6 0 10 35
10 86 l0 87 49 -62 c27 -34 52 -57 56 -51 3 5 1 10 -5 10 -6 0 -9 3 -6 8 2 4
5 30 7 57 1 28 5 54 7 59 3 5 25 -13 48 -40 l44 -49 1 40 c1 22 0 52 -1 67 -2
42 16 41 54 -4 20 -23 38 -39 40 -37 3 3 7 31 10 63 4 59 12 78 24 60 31 -46
66 -83 74 -78 5 3 9 23 7 43 -3 60 0 81 14 81 7 0 18 -9 25 -20 7 -12 18 -18
25 -14 7 4 9 4 5 -1 -8 -8 9 -35 21 -35 3 0 6 29 6 65 0 36 3 65 7 65 9 0 54
-45 67 -67 16 -30 23 -8 28 93 3 74 2 94 -8 89 -8 -5 -10 -4 -5 4 12 20 26 2
26 -35 0 -25 9 -44 32 -69 17 -20 36 -34 42 -32 5 2 11 24 12 50 3 66 11 71
46 32 32 -37 44 -43 46 -22 0 6 4 35 8 64 l7 51 38 -44 c22 -25 39 -44 40 -42
0 2 2 17 4 33 5 42 13 77 20 83 3 3 20 -9 38 -28 l32 -33 12 52 c6 29 14 55
17 59 4 3 19 -10 35 -29 l29 -34 11 28 c6 16 11 41 11 56 0 42 9 43 42 5 16
-19 33 -32 38 -29 4 2 11 33 15 67 4 35 10 57 12 50 3 -7 17 -26 32 -42 33
-37 51 -25 51 31 0 51 14 56 47 19 l27 -31 12 33 c7 18 13 46 13 63 l1 29 37
-39 c21 -23 38 -34 41 -27 2 7 7 10 10 8 4 -2 8 19 10 48 1 28 3 67 5 86 2 32
0 35 -23 32 -14 -1 -33 -12 -44 -25 -10 -12 -23 -21 -29 -19 -12 4 -55 -17
-74 -35 -7 -6 -10 -20 -7 -30 6 -17 6 -17 -8 0 -14 18 -15 18 -55 -3 -33 -17
-40 -25 -36 -43 5 -21 5 -21 -8 -4 -13 17 -16 17 -47 2 -17 -9 -32 -24 -32
-33 0 -15 -2 -15 -10 -2 -6 10 -10 11 -10 3 0 -7 -11 -13 -24 -13 -14 0 -28
-5 -31 -10 -4 -6 -10 -8 -15 -5 -5 3 -12 -4 -15 -17 -5 -19 -13 -23 -42 -24
-20 0 -39 -6 -41 -12 -2 -7 -10 -12 -19 -12 -10 0 -13 -7 -9 -22 3 -13 3 -17
0 -10 -8 17 -35 15 -62 -4 -13 -9 -30 -13 -38 -10 -12 4 -12 2 -4 -15 10 -18
10 -19 -9 -7 -16 10 -23 10 -33 0 -18 -18 -35 -14 -42 11 -4 15 1 27 14 37 16
13 17 18 6 33 -17 22 -33 6 -38 -38 -2 -23 -9 -30 -33 -35 -26 -6 -154 -69
-400 -200 -190 -101 -335 -173 -339 -169 -3 2 -7 34 -9 70 -5 86 -38 139 -82
136 -26 -2 -34 5 -72 63 -24 36 -48 70 -53 77 -16 19 -12 46 5 39 10 -4 15 1
15 14 0 23 -4 24 -30 8 -15 -9 -25 -10 -37 -2 -31 19 -25 34 20 53 25 11 48
24 52 31 8 13 -39 88 -59 96 -17 7 -116 -42 -116 -57 0 -18 -27 8 -61 59 -36
54 -32 77 11 67 17 -4 30 -3 29 2 -6 33 21 49 52 33 16 -9 19 -7 19 9 0 25 30
43 52 30 12 -6 17 -4 21 11 7 26 35 36 58 21 16 -9 19 -8 19 8 0 26 27 48 42
33 17 -17 28 -15 28 7 0 23 31 35 61 26 14 -5 19 -3 15 3 -6 11 19 42 34 42 5
0 12 -4 15 -10 10 -17 25 -11 25 10 0 25 29 41 52 29 13 -7 18 -6 18 4 0 26
29 42 51 29 16 -10 19 -9 19 8 0 24 30 41 51 29 12 -6 19 -2 28 18 10 21 16
24 42 19 16 -3 28 -2 25 3 -3 4 4 17 15 27 16 15 24 16 39 6 16 -10 19 -8 22
11 2 18 9 22 36 21 20 -1 32 3 32 11 0 7 7 18 16 26 12 10 20 10 35 1 16 -10
19 -9 19 7 0 22 28 35 54 25 11 -4 16 -1 16 10 0 19 33 38 54 30 31 -12 15
-29 -57 -64 -39 -19 -82 -41 -95 -49 l-23 -14 26 -27 c15 -15 25 -34 23 -41
-4 -20 141 -211 154 -203 7 4 8 2 4 -4 -6 -11 80 -132 94 -132 13 0 75 23 87
32 8 7 6 19 -10 49 -12 22 -23 35 -25 29 -3 -7 1 -23 9 -36 7 -13 9 -27 6 -31
-13 -12 -53 18 -100 76 -48 59 -62 88 -29 58 14 -13 21 -14 30 -5 8 8 15 8 27
-2 20 -16 19 -28 -2 -32 -12 -2 -14 -6 -7 -10 6 -4 20 -1 30 6 18 14 18 15 1
51 -10 21 -16 40 -13 42 5 6 62 -81 91 -137 10 -19 19 -37 21 -38 1 -2 39 15
83 38 l80 42 -21 39 c-11 21 -24 36 -30 33 -5 -3 -3 -16 6 -30 37 -55 3 -60
-50 -6 -36 37 -90 109 -64 85 16 -15 34 -17 25 -4 -9 16 15 24 30 11 21 -18
18 -30 -7 -30 -12 0 -19 -3 -15 -6 3 -3 19 -3 36 1 l31 7 -21 40 c-37 72 -7
50 36 -27 30 -53 58 -95 63 -95 16 1 31 17 37 40 5 22 -3 35 -59 89 -37 34
-66 67 -66 71 0 5 -6 13 -14 17 -25 15 -56 77 -46 93 13 20 13 93 0 85 -5 -3
-10 -17 -10 -31 0 -39 -36 -31 -68 16 -15 21 -34 39 -42 40 -8 0 -39 -11 -68
-25 -59 -27 -78 -25 -61 6 6 13 19 19 32 17 12 -1 24 2 25 7 9 26 27 36 54 30
24 -6 28 -4 28 15 0 17 5 21 28 19 15 -1 35 1 44 6 15 6 16 9 3 22 -17 17 -19
29 -6 38 10 5 174 -191 246 -294 22 -31 63 -86 90 -121 28 -35 53 -68 56 -73
7 -10 13 -7 134 58 38 20 119 62 178 93 60 31 111 62 114 69 3 8 -4 24 -16 37
-26 28 -27 43 -1 51 16 5 19 12 14 31 -4 16 -1 31 10 43 15 17 10 25 -85 137
-55 65 -110 126 -121 135 -10 10 -19 20 -18 24 3 12 -63 85 -76 85 -8 0 -22
-17 -31 -37 -21 -42 -43 -55 -43 -24 0 29 -28 27 -42 -3 -9 -20 -69 -56 -93
-56 -3 0 -3 28 1 63 6 62 6 64 -30 103 -20 21 -36 33 -36 27 0 -17 -15 -16
-34 2 -8 8 -16 15 -18 14 -2 0 -18 -5 -37 -11z m8 -31 c6 -8 8 -17 4 -20 -7
-8 -33 11 -33 24 0 13 16 11 29 -4z m119 -19 c16 -16 15 -28 -3 -28 -8 0 -15
5 -15 11 0 6 -9 9 -20 6 -22 -6 -28 8 -7 16 21 9 32 8 45 -5z m-64 -60 c-3 -5
-13 -3 -21 4 -9 7 -26 12 -37 10 -19 -2 -18 -1 4 12 22 13 27 13 42 -1 10 -9
15 -20 12 -25z m-77 -13 c8 -24 -1 -27 -32 -11 -23 12 -24 15 -8 19 31 8 33 7
40 -8z m-77 -30 c15 -18 5 -34 -11 -18 -6 6 -19 9 -28 5 -14 -5 -14 -4 -2 11
17 21 25 21 41 2z m-70 -29 c0 -2 3 -12 7 -21 5 -15 3 -16 -15 -6 -25 13 -29
31 -7 31 8 0 15 -2 15 -4z m-63 -62 c-9 -10 -38 16 -31 28 4 6 13 4 22 -6 9
-8 13 -19 9 -22z m-77 -19 c7 -9 10 -18 7 -22 -8 -7 -37 15 -37 28 0 14 16 11
30 -6z m590 -11 c0 -14 -3 -14 -15 -4 -8 7 -15 14 -15 16 0 2 7 4 15 4 8 0 15
-7 15 -16z m-657 -47 c-4 -6 -11 -4 -18 6 -7 10 -18 17 -26 17 -11 0 -11 2 1
10 17 11 53 -17 43 -33z m617 23 c0 -5 -4 -10 -10 -10 -5 0 -10 5 -10 10 0 6
5 10 10 10 6 0 10 -4 10 -10z m-45 -21 c11 -16 1 -19 -13 -3 -7 8 -8 14 -3 14
5 0 13 -5 16 -11z m-645 -19 c9 -16 8 -20 -5 -20 -8 0 -15 2 -15 4 0 2 -3 11
-6 20 -9 23 13 20 26 -4z m-73 -35 c9 -25 -2 -27 -22 -5 -17 18 -17 20 -1 20
9 0 19 -7 23 -15z m840 9 c-3 -3 -12 -4 -19 -1 -8 3 -5 6 6 6 11 1 17 -2 13
-5z m-1029 -28 c3 -12 -1 -17 -10 -14 -7 3 -15 13 -16 22 -3 12 1 17 10 14 7
-3 15 -13 16 -22z m112 -11 c18 -22 5 -30 -19 -13 -12 8 -18 18 -14 21 10 11
19 8 33 -8z m850 -5 c0 -5 -4 -10 -9 -10 -6 0 -13 5 -16 10 -3 6 1 10 9 10 9
0 16 -4 16 -10z m154 -21 c-18 -20 -34 -17 -34 8 0 13 2 14 17 2 15 -12 16
-12 10 3 -4 12 -2 15 9 11 13 -5 13 -8 -2 -24z m-1070 -31 c-8 -12 -34 11 -34
30 0 13 3 12 20 -3 11 -10 17 -22 14 -27z m-194 2 c9 -16 8 -20 -5 -20 -8 0
-15 2 -15 4 0 2 -3 11 -6 20 -9 23 13 20 26 -4z m1048 13 c-10 -2 -26 -2 -35
0 -10 3 -2 5 17 5 19 0 27 -2 18 -5z m137 -12 c3 -5 1 -12 -5 -16 -5 -3 -10 1
-10 9 0 18 6 21 15 7z m-1067 -37 c-10 -10 -28 6 -28 24 0 15 1 15 17 -1 9 -9
14 -19 11 -23z m-189 -10 c3 -16 1 -17 -13 -5 -19 16 -21 34 -3 29 6 -3 14
-13 16 -24z m111 2 c0 -2 3 -11 6 -20 9 -23 -13 -20 -26 4 -9 16 -8 20 5 20 8
0 15 -2 15 -4z m1048 -24 c2 -7 -6 -12 -17 -12 -21 0 -27 11 -14 24 9 9 26 2
31 -12z m-1233 -1 c10 -17 -12 -21 -25 -6 -10 12 -10 15 3 15 9 0 18 -4 22 -9z
m755 1 c0 -5 9 -17 19 -29 10 -11 16 -25 13 -30 -11 -17 -283 -153 -293 -147
-15 9 -10 21 12 27 30 8 18 33 -15 29 -35 -4 -35 24 0 31 17 3 31 -2 44 -16
19 -20 19 -19 97 18 84 40 126 69 116 78 -3 4 -17 4 -29 1 -32 -8 -32 19 -1
34 27 13 37 14 37 4z m-637 -27 c9 -23 -11 -28 -23 -5 -8 16 -8 20 4 20 7 0
16 -7 19 -15z m-198 -9 c17 -17 7 -30 -12 -15 -13 12 -18 29 -7 29 3 0 12 -6
19 -14z m119 -22 c4 -9 4 -19 2 -21 -8 -8 -26 8 -26 23 0 19 16 18 24 -2z
m-188 -32 c-9 -8 -26 10 -26 26 1 15 2 15 15 -2 8 -11 13 -21 11 -24z m114 -7
c7 -9 10 -18 7 -22 -8 -7 -37 15 -37 28 0 14 16 11 30 -6z m-191 -34 c-14 -4
-30 19 -22 33 3 5 12 1 20 -10 10 -13 10 -20 2 -23z m120 -17 c3 -16 1 -17
-13 -5 -19 16 -21 34 -3 29 6 -3 14 -13 16 -24z m891 4 c0 -7 -35 -30 -78 -52
-42 -21 -85 -42 -94 -47 -14 -7 -18 -5 -18 6 0 9 15 22 34 30 19 8 38 19 41
25 4 6 9 9 13 6 4 -2 23 7 42 20 40 26 60 30 60 12z m-965 -48 c-5 -8 -11 -6
-20 7 -17 23 -7 39 12 20 9 -8 12 -20 8 -27z m-196 7 c6 -8 8 -17 4 -20 -7 -8
-33 11 -33 24 0 13 16 11 29 -4z m121 -33 c0 -8 -4 -14 -10 -14 -5 0 -10 2
-10 4 0 2 -3 12 -6 20 -5 12 -2 15 10 10 9 -3 16 -12 16 -20z m-193 -20 c-9
-10 -38 16 -31 28 4 6 13 4 22 -6 9 -8 13 -19 9 -22z m113 -9 c7 -9 10 -18 7
-22 -8 -7 -37 15 -37 28 0 14 16 11 30 -6z m-260 -67 c0 -15 -19 -8 -29 11
-14 25 0 37 16 15 7 -10 13 -21 13 -26z m187 27 c9 -25 -2 -27 -22 -5 -17 18
-17 20 -1 20 9 0 19 -7 23 -15z m-77 -30 c7 -9 10 -18 7 -22 -8 -7 -37 15 -37
28 0 14 16 11 30 -6z m-190 -35 c-1 -12 -4 -11 -15 4 -8 10 -12 23 -8 29 7 11
23 -12 23 -33z m1540 -6 c17 -20 29 -38 26 -41 -5 -5 -76 62 -76 72 0 14 21 1
50 -31z m-1426 0 c9 -22 -3 -32 -14 -14 -12 19 -12 30 -1 30 5 0 12 -7 15 -16z
m1376 6 c0 -5 -4 -10 -10 -10 -5 0 -10 5 -10 10 0 6 5 10 10 10 6 0 10 -4 10
-10z m-1447 -62 c-3 -6 -12 -3 -20 5 -9 9 -12 20 -8 28 6 9 11 8 21 -6 7 -10
11 -22 7 -27z m1497 -10 c0 -15 -20 -8 -30 11 -17 33 -11 47 10 21 11 -14 20
-28 20 -32z m427 -210 c-3 -8 -6 -5 -6 6 -1 11 2 17 5 13 3 -3 4 -12 1 -19z
m-1906 -25 c10 3 17 1 13 -4 -3 -5 -14 -9 -25 -9 -13 0 -19 6 -18 23 1 18 2
19 6 4 3 -13 11 -17 24 -14z m73 -19 c9 -23 7 -34 -4 -34 -5 0 -10 7 -10 15 0
8 -5 15 -11 15 -7 0 -9 -9 -6 -21 4 -15 1 -19 -11 -17 -26 5 -25 32 0 44 32
16 35 16 42 -2z m-74 -39 c20 -24 6 -28 -15 -5 -10 11 -13 20 -8 20 6 0 16 -7
23 -15z m120 -129 c0 -2 -7 -6 -15 -10 -8 -3 -15 -1 -15 4 0 6 7 10 15 10 8 0
15 -2 15 -4z m1215 -5 c7 -12 -13 -25 -45 -28 l-25 -3 25 20 c28 22 36 24 45
11z m-1169 -63 c9 -18 34 -59 55 -90 37 -54 39 -75 6 -62 -8 3 -18 13 -21 22
-13 32 -45 84 -67 108 -12 13 -19 30 -16 38 10 25 25 19 43 -16z m1091 16 c-3
-3 -12 -4 -19 -1 -8 3 -5 6 6 6 11 1 17 -2 13 -5z m-82 -34 c3 -5 0 -10 -7
-10 -8 0 -20 -9 -28 -20 -15 -21 -50 -28 -50 -10 0 6 6 10 13 10 8 0 22 9 33
19 22 23 30 25 39 11z m-147 -84 c-7 -7 -19 -11 -26 -8 -11 4 -11 6 0 13 7 5
19 9 26 9 10 0 10 -3 0 -14z m-121 -60 c0 -8 -6 -12 -14 -9 -7 3 -10 9 -7 14
8 14 21 11 21 -5z m-137 -66 c0 -5 -5 -10 -11 -10 -5 0 -7 5 -4 10 3 6 8 10
11 10 2 0 4 -4 4 -10z m-530 -51 c0 -6 -4 -7 -10 -4 -5 3 -10 11 -10 16 0 6 5
7 10 4 6 -3 10 -11 10 -16z m455 2 c-3 -6 -18 -11 -33 -11 l-27 1 30 13 c32
14 41 13 30 -3z m-60 -31 c-3 -5 -10 -10 -16 -10 -5 0 -9 5 -9 10 0 6 7 10 16
10 8 0 12 -4 9 -10z m-60 -31 c-10 -15 -25 -10 -19 6 4 8 10 12 15 9 5 -3 7
-10 4 -15z m-355 -179 c0 -5 -5 -10 -11 -10 -5 0 -7 5 -4 10 3 6 8 10 11 10 2
0 4 -4 4 -10z m-45 -29 c-3 -6 -11 -8 -17 -5 -6 4 -5 9 3 15 16 10 23 4 14
-10z m-45 -14 c0 -8 -11 -19 -25 -25 -32 -15 -35 -15 -35 -2 0 6 6 10 14 10 7
0 19 7 26 15 15 19 20 19 20 2z"/>
<path d="M3095 3080 c-8 -13 5 -13 25 0 13 8 13 10 -2 10 -9 0 -20 -4 -23 -10z"/>
<path d="M2956 3065 c4 -8 10 -15 15 -15 4 0 6 7 3 15 -4 8 -10 15 -15 15 -4
0 -6 -7 -3 -15z"/>
<path d="M3060 3060 c0 -5 5 -10 10 -10 6 0 10 5 10 10 0 6 -4 10 -10 10 -5 0
-10 -4 -10 -10z"/>
<path d="M2268 3043 c-21 -5 -22 -12 -4 -35 16 -22 55 -23 62 -3 7 17 -13 46
-30 44 -6 -1 -19 -3 -28 -6z"/>
<path d="M3100 3042 c0 -10 33 -42 44 -42 3 0 -1 11 -10 25 -16 25 -34 33 -34
17z"/>
<path d="M3036 3025 c-3 -8 -1 -15 4 -15 6 0 10 7 10 15 0 8 -2 15 -4 15 -2 0
-6 -7 -10 -15z"/>
<path d="M2155 3000 c3 -5 11 -10 16 -10 6 0 7 5 4 10 -3 6 -11 10 -16 10 -6
0 -7 -4 -4 -10z"/>
<path d="M3052 2910 c7 -11 18 -20 25 -20 8 0 5 8 -7 20 -11 11 -22 20 -25 20
-3 0 0 -9 7 -20z"/>
<path d="M1960 2910 c0 -5 5 -10 10 -10 6 0 10 5 10 10 0 6 -4 10 -10 10 -5 0
-10 -4 -10 -10z"/>
<path d="M3000 2890 c0 -6 5 -10 10 -10 6 0 14 -10 19 -22 l8 -22 5 22 c4 12
2 20 -3 16 -5 -3 -9 -1 -9 4 0 6 -7 12 -15 16 -8 3 -15 1 -15 -4z"/>
<path d="M2950 2881 c0 -6 5 -13 10 -16 6 -3 10 1 10 9 0 9 -4 16 -10 16 -5 0
-10 -4 -10 -9z"/>
<path d="M2126 2855 c-8 -8 -24 -15 -35 -15 -11 0 -25 -8 -30 -18 -7 -14 -18
-18 -40 -14 -34 5 -38 -4 -17 -33 9 -12 20 -16 36 -12 16 4 28 0 37 -11 13
-15 14 -13 9 16 -5 29 -3 32 18 32 13 0 26 -7 30 -15 10 -28 26 -16 20 15 -6
27 -4 30 18 30 13 0 30 -6 36 -12 10 -10 15 -10 22 2 16 25 12 30 -24 30 -19
0 -38 5 -41 10 -9 14 -21 12 -39 -5z"/>
<path d="M1843 2791 l-22 -18 26 -41 c26 -39 27 -40 57 -27 17 8 39 16 49 19
24 7 21 28 -8 60 -29 31 -70 34 -102 7z"/>
<path d="M2850 2780 c0 -5 4 -10 9 -10 6 0 13 5 16 10 3 6 -1 10 -9 10 -9 0
-16 -4 -16 -10z"/>
<path d="M1543 2745 c-13 -15 -5 -65 11 -65 6 1 21 9 34 20 20 16 21 22 11 39
-14 21 -39 24 -56 6z"/>
<path d="M1394 2683 c-8 -13 -8 -25 -1 -40 12 -26 15 -27 51 -13 31 11 33 30
6 53 -26 22 -42 22 -56 0z"/>
<path d="M1670 2685 c7 -9 15 -13 17 -11 7 7 -7 26 -19 26 -6 0 -6 -6 2 -15z"/>
<path d="M2546 2661 c-4 -5 -2 -12 3 -15 5 -4 12 -2 15 3 4 5 2 12 -3 15 -5 4
-12 2 -15 -3z"/>
<path d="M2485 2610 c-3 -5 1 -10 10 -10 9 0 13 5 10 10 -3 6 -8 10 -10 10 -2
0 -7 -4 -10 -10z"/>
<path d="M1645 2589 c-4 -6 -5 -13 -2 -16 7 -7 27 6 27 18 0 12 -17 12 -25 -2z"/>
<path d="M2401 2591 c-8 -6 -9 -11 -3 -15 6 -3 14 -1 17 5 9 14 2 20 -14 10z"/>
<path d="M2287 2560 c-3 -11 -1 -20 4 -20 5 0 9 9 9 20 0 11 -2 20 -4 20 -2 0
-6 -9 -9 -20z"/>
<path d="M4210 2563 c0 -13 14 -28 28 -30 19 -4 14 15 -8 27 -11 6 -20 7 -20
3z"/>
<path d="M1670 2546 c0 -7 11 -25 25 -40 14 -15 25 -31 25 -37 0 -5 5 -9 10
-9 15 0 12 8 -20 56 -33 47 -40 52 -40 30z"/>
<path d="M1840 2540 c0 -5 5 -10 10 -10 6 0 10 5 10 10 0 6 -4 10 -10 10 -5 0
-10 -4 -10 -10z"/>
<path d="M2242 2530 c-6 -11 -8 -21 -3 -25 5 -3 13 4 16 16 9 28 2 33 -13 9z"/>
<path d="M1880 2501 c0 -6 5 -13 10 -16 6 -3 10 1 10 9 0 9 -4 16 -10 16 -5 0
-10 -4 -10 -9z"/>
<path d="M4988 2483 c13 -3 32 -19 43 -36 12 -21 19 -26 19 -15 0 24 -39 58
-64 57 -19 -2 -18 -2 2 -6z"/>
<path d="M1740 2440 c0 -5 5 -10 10 -10 6 0 10 5 10 10 0 6 -4 10 -10 10 -5 0
-10 -4 -10 -10z"/>
<path d="M4291 2418 c8 -15 8 -22 -1 -28 -15 -9 -5 -30 14 -30 8 0 17 -16 21
-37 4 -20 15 -48 26 -61 10 -13 16 -29 12 -35 -4 -6 0 -8 9 -4 12 4 14 1 11
-14 -4 -14 0 -19 16 -19 13 0 21 -6 21 -18 0 -28 -19 -85 -31 -92 -17 -11 12
-52 33 -46 25 6 32 -10 12 -26 -9 -7 -27 -23 -40 -35 -14 -13 -36 -23 -50 -23
-23 0 -24 1 -9 16 17 18 16 35 -3 42 -7 2 -16 -8 -22 -22 -5 -15 -21 -31 -36
-36 -17 -7 -24 -15 -20 -25 4 -10 -3 -20 -19 -27 -17 -8 -22 -14 -14 -19 18
-11 39 1 50 27 10 27 36 31 53 9 10 -14 17 -13 61 9 82 40 84 43 91 126 3 41
10 88 15 104 15 48 10 72 -21 106 -16 18 -30 36 -30 40 0 5 -9 12 -21 15 -12
4 -18 12 -15 21 3 7 -3 18 -14 24 -11 6 -17 16 -15 23 6 14 -25 35 -67 48 -26
7 -27 6 -17 -13z"/>
<path d="M3675 2410 c-3 -5 -2 -10 4 -10 5 0 13 5 16 10 3 6 2 10 -4 10 -5 0
-13 -4 -16 -10z"/>
<path d="M2040 2400 c-13 -8 -13 -10 2 -10 9 0 20 5 23 10 8 13 -5 13 -25 0z"/>
<path d="M3680 2353 c0 -21 9 -41 26 -58 26 -26 42 -28 30 -3 -4 7 -18 31 -31
53 l-25 40 0 -32z"/>
<path d="M1760 2362 c0 -4 12 -20 25 -35 22 -25 27 -26 44 -15 30 21 11 54
-33 56 -20 1 -36 -2 -36 -6z"/>
<path d="M4800 2318 c-251 -134 -239 -126 -250 -166 -5 -20 -10 -47 -10 -59 0
-25 15 -39 25 -23 5 8 11 7 21 -1 11 -9 19 -8 34 6 11 10 20 26 20 35 0 18 40
50 61 50 7 0 20 -7 30 -16 16 -15 20 -14 53 11 19 14 33 32 30 38 -6 17 57 52
66 36 4 -6 10 4 12 22 3 19 2 36 -3 37 -15 6 -10 42 6 48 8 4 15 10 15 15 0
18 -36 7 -110 -33z"/>
<path d="M1642 2308 c-16 -16 -15 -53 1 -66 19 -16 57 -3 57 19 0 11 -4 19 -9
19 -5 0 -11 9 -14 20 -6 23 -18 25 -35 8z"/>
<path d="M3635 2292 c-11 -2 -24 -8 -28 -12 -11 -10 21 -60 39 -60 16 0 19
-26 4 -35 -20 -12 -10 -26 10 -15 15 8 20 8 20 -1 0 -6 8 -21 19 -34 14 -19
21 -21 30 -12 9 9 14 9 20 -1 10 -17 49 -2 74 28 18 22 18 23 0 41 -17 17 -21
17 -47 4 -15 -8 -30 -15 -31 -15 -2 0 -10 17 -18 38 -9 20 -22 46 -31 57 -13
16 -17 18 -25 6 -8 -12 -9 -12 -12 0 -2 8 -13 13 -24 11z"/>
<path d="M4337 2163 c-4 -3 -7 -14 -7 -23 0 -10 -13 -23 -30 -30 -17 -7 -35
-21 -41 -31 -5 -11 -19 -18 -32 -17 -26 2 -136 -58 -144 -78 -8 -22 -54 -17
-60 6 -10 39 -28 21 -28 -30 0 -50 15 -66 32 -36 4 7 26 22 48 33 22 11 81 41
132 66 50 26 97 47 105 47 29 0 54 28 56 64 3 34 -13 48 -31 29z"/>
<path d="M3563 2123 c1 -26 -2 -37 -10 -36 -16 4 -31 -26 -29 -57 1 -21 6 -25
30 -23 57 4 88 70 50 107 -8 9 -12 16 -8 16 3 0 1 7 -6 15 -20 25 -30 17 -27
-22z"/>
<path d="M3188 2133 c7 -3 16 -2 19 1 4 3 -2 6 -13 5 -11 0 -14 -3 -6 -6z"/>
<path d="M1999 2110 c-11 -6 -14 -19 -11 -40 2 -16 5 -30 7 -30 22 0 65 26 65
39 0 34 -30 49 -61 31z"/>
<path d="M3190 2110 c0 -5 5 -10 10 -10 6 0 10 5 10 10 0 6 -4 10 -10 10 -5 0
-10 -4 -10 -10z"/>
<path d="M3650 2104 c0 -9 5 -14 12 -12 18 6 21 28 4 28 -9 0 -16 -7 -16 -16z"/>
<path d="M3376 2101 c-4 -7 -5 -15 -2 -18 9 -9 19 4 14 18 -4 11 -6 11 -12 0z"/>
<path d="M3710 2080 c-12 -7 -12 -12 -3 -21 15 -15 26 -7 21 15 -2 11 -7 13
-18 6z"/>
<path d="M3375 2064 c-11 -8 -26 -19 -33 -23 -11 -6 -6 -17 21 -46 l34 -38 42
19 c22 10 41 23 41 30 0 20 -50 74 -68 74 -10 0 -26 -8 -37 -16z"/>
<path d="M1842 2038 c-17 -17 -15 -28 6 -44 23 -18 47 -17 62 1 11 13 9 19 -8
35 -24 23 -43 25 -60 8z"/>
<path d="M2287 2033 c-12 -12 -7 -22 8 -17 8 4 15 10 15 15 0 11 -14 12 -23 2z"/>
<path d="M2440 2027 c-23 -10 -22 -11 25 -16 50 -6 70 3 44 20 -18 11 -38 10
-69 -4z"/>
<path d="M3262 2028 c-8 -8 -7 -17 5 -34 17 -26 33 -23 33 5 0 26 -23 44 -38
29z"/>
<path d="M3915 2030 c3 -5 8 -10 11 -10 2 0 4 5 4 10 0 6 -5 10 -11 10 -5 0
-7 -4 -4 -10z"/>
<path d="M3176 1985 c-3 -9 1 -18 9 -21 8 -4 12 -10 9 -15 -3 -5 2 -9 10 -9
19 0 21 31 4 48 -16 16 -25 15 -32 -3z"/>
<path d="M2446 1958 c-9 -35 -8 -38 19 -38 27 0 35 26 13 48 -17 17 -25 15
-32 -10z"/>
<path d="M3761 1964 c0 -11 3 -14 6 -6 3 7 2 16 -1 19 -3 4 -6 -2 -5 -13z"/>
<path d="M2140 1960 c0 -5 5 -10 10 -10 6 0 10 -7 10 -15 0 -9 7 -18 15 -21 8
-4 13 -10 10 -14 -6 -9 13 -25 21 -18 6 6 -19 58 -28 58 -5 0 -8 7 -8 15 0 8
-7 15 -15 15 -8 0 -15 -4 -15 -10z"/>
<path d="M3910 1956 c0 -9 5 -16 10 -16 6 0 10 4 10 9 0 6 -4 13 -10 16 -5 3
-10 -1 -10 -9z"/>
<path d="M3330 1951 c0 -5 7 -11 15 -15 8 -3 15 -10 15 -16 0 -16 -40 -12 -46
5 -4 8 -10 15 -15 15 -14 0 -11 -28 4 -33 9 -4 8 -8 -3 -16 -22 -15 -31 -13
-28 5 2 10 -3 19 -11 22 -10 3 -12 0 -7 -13 5 -14 2 -17 -19 -13 -27 6 -35 -6
-10 -16 8 -3 12 -12 9 -19 -10 -28 139 -257 168 -257 24 0 150 63 167 84 13
16 6 40 -9 31 -4 -3 -20 9 -34 26 -28 33 -28 51 0 28 9 -8 0 12 -20 43 -20 31
-36 64 -36 72 0 9 -9 21 -20 28 -11 7 -20 18 -20 25 0 8 -11 10 -34 6 -19 -3
-36 -1 -40 6 -9 13 -26 15 -26 2z m47 -86 c8 -22 -6 -33 -17 -15 -13 20 -12
30 0 30 6 0 13 -7 17 -15z m123 -114 c0 -12 -20 -25 -27 -18 -7 7 6 27 18 27
5 0 9 -4 9 -9z m-81 -51 c35 -48 19 -58 -18 -11 -21 26 -28 41 -19 41 8 0 24
-14 37 -30z m101 0 c0 -5 -2 -10 -4 -10 -3 0 -8 5 -11 10 -3 6 -1 10 4 10 6 0
11 -4 11 -10z m-140 -10 c0 -5 -7 -10 -16 -10 -8 0 -12 5 -9 10 3 6 10 10 16
10 5 0 9 -4 9 -10z m20 -50 c0 -5 -2 -10 -4 -10 -3 0 -8 5 -11 10 -3 6 -1 10
4 10 6 0 11 -4 11 -10z"/>
<path d="M3806 1944 c-9 -22 -8 -24 9 -24 8 0 15 6 15 14 0 22 -17 28 -24 10z"/>
<path d="M3100 1934 c0 -8 5 -12 11 -9 6 4 9 1 7 -6 -1 -8 2 -15 7 -16 6 -2
10 2 9 7 -1 6 -2 17 -2 25 -2 20 -32 19 -32 -1z"/>
<path d="M4128 1874 c-27 -13 -48 -31 -48 -39 0 -7 -9 -20 -21 -28 -15 -11
-17 -17 -8 -23 8 -4 20 2 33 18 12 13 42 37 69 52 45 26 61 47 35 46 -7 -1
-34 -12 -60 -26z"/>
<path d="M1746 1872 c-3 -6 -1 -14 5 -17 15 -10 25 3 12 16 -7 7 -13 7 -17 1z"/>
<path d="M3176 1842 c4 -20 13 -44 20 -53 8 -8 14 -26 14 -38 0 -12 4 -20 9
-16 6 3 9 13 9 23 0 9 1 22 3 27 5 15 -31 83 -47 89 -12 5 -14 -1 -8 -32z"/>
<path d="M2227 1843 c-7 -7 24 -63 35 -63 18 0 18 22 0 27 -12 3 -18 11 -16
18 6 14 -9 28 -19 18z"/>
<path d="M3130 1840 c0 -5 7 -10 16 -10 8 0 12 5 9 10 -3 6 -10 10 -16 10 -5
0 -9 -4 -9 -10z"/>
<path d="M2360 1790 c-8 -5 -11 -12 -8 -16 10 -9 38 3 38 16 0 12 -10 13 -30
0z"/>
<path d="M1790 1784 c1 -20 17 -31 47 -31 22 0 30 4 26 14 -3 7 -10 13 -17 13
-6 0 -21 3 -33 6 -13 4 -23 2 -23 -2z"/>
<path d="M3045 1730 c-3 -5 1 -10 9 -10 9 0 16 5 16 10 0 6 -4 10 -9 10 -6 0
-13 -4 -16 -10z"/>
<path d="M2246 1711 c-3 -4 3 -16 14 -26 11 -10 20 -24 20 -32 0 -25 73 -5 84
24 3 8 2 12 -3 9 -4 -3 -16 3 -26 14 -18 20 -79 28 -89 11z"/>
<path d="M3190 1690 c0 -5 5 -10 10 -10 6 0 10 5 10 10 0 6 -4 10 -10 10 -5 0
-10 -4 -10 -10z"/>
<path d="M2542 1681 c-8 -4 -13 -11 -13 -15 4 -26 -1 -35 -14 -30 -10 4 -15 0
-15 -14 0 -28 62 -39 96 -17 30 20 30 30 -1 60 -26 27 -33 29 -53 16z m29 -34
c-1 -12 -15 -9 -19 4 -3 6 1 10 8 8 6 -3 11 -8 11 -12z"/>
<path d="M3230 1653 c0 -28 36 -89 58 -98 20 -8 14 64 -9 96 -26 37 -49 38
-49 2z"/>
<path d="M3574 1666 c-3 -8 -3 -19 0 -24 8 -13 -19 -23 -41 -16 -15 5 -16 4
-3 -5 13 -9 12 -11 -5 -11 -11 0 -25 -8 -32 -19 -6 -10 -22 -21 -35 -23 -13
-3 -32 -9 -43 -12 -14 -5 -13 -3 4 7 l23 14 -23 6 c-31 8 -46 -7 -41 -41 5
-38 37 -39 112 -3 67 33 122 86 118 115 -4 25 -26 33 -34 12z"/>
<path d="M2128 1625 c-14 -30 3 -55 32 -48 22 6 25 24 10 54 -14 26 -28 24
-42 -6z"/>
<path d="M2449 1589 c-10 -6 -7 -9 14 -9 29 0 35 5 14 13 -8 3 -20 1 -28 -4z"/>
<path d="M2540 1530 c6 -11 8 -25 5 -30 -9 -14 24 -25 37 -12 12 12 -18 62
-39 62 -11 0 -11 -4 -3 -20z"/>
<path d="M2015 1521 c-3 -5 2 -17 11 -26 22 -21 44 -4 24 20 -14 17 -26 19
-35 6z"/>
<path d="M3312 1518 c3 -7 13 -15 24 -17 16 -3 17 -1 5 13 -16 19 -34 21 -29
4z"/>
<path d="M2467 1513 c-3 -2 2 -17 10 -33 15 -32 43 -31 43 0 0 24 -39 48 -53
33z"/>
<path d="M2306 1502 c-11 -2 -25 -10 -33 -17 -10 -11 -8 -19 15 -43 26 -28 29
-29 55 -15 21 11 25 17 18 31 -19 35 -36 49 -55 44z"/>
<path d="M2620 1463 c-8 -3 -23 -12 -32 -21 -13 -11 -18 -11 -18 -3 0 7 -6 11
-12 9 -7 -3 -13 -11 -13 -19 0 -9 -10 -13 -27 -11 -15 1 -29 -2 -33 -8 -3 -5
0 -10 7 -10 7 0 2 -7 -11 -16 -19 -14 -25 -14 -31 -3 -7 10 -11 10 -24 0 -9
-7 -13 -17 -10 -22 9 -15 -13 -10 -26 6 -16 19 -27 19 -46 0 -21 -21 -9 -36
21 -25 21 8 26 5 44 -26 12 -19 25 -33 30 -29 12 7 22 -4 73 -85 22 -36 50
-75 60 -87 20 -21 20 -21 -1 -32 -23 -13 -28 -31 -8 -31 14 0 203 94 224 112
19 16 16 28 -8 28 -11 0 -17 4 -14 11 4 5 21 9 38 7 30 -3 32 -1 29 27 -3 27
-12 39 -34 47 -4 2 -9 17 -10 33 -2 38 -40 91 -71 99 -14 3 -32 17 -41 31 -16
25 -27 28 -56 18z m29 -337 c-2 -2 -15 -9 -29 -15 -24 -11 -24 -11 -6 3 16 13
49 24 35 12z"/>
<path d="M2160 1210 c0 -5 5 -10 11 -10 5 0 7 5 4 10 -3 6 -8 10 -11 10 -2 0
-4 -4 -4 -10z"/>
<path d="M2090 1179 c0 -5 5 -7 10 -4 6 3 10 8 10 11 0 2 -4 4 -10 4 -5 0 -10
-5 -10 -11z"/>
<path d="M2374 1136 c-7 -18 13 -56 29 -56 7 0 18 4 26 9 12 8 13 14 3 35 -13
28 -49 36 -58 12z m36 -16 c0 -5 -5 -10 -11 -10 -5 0 -7 5 -4 10 3 6 8 10 11
10 2 0 4 -4 4 -10z"/>
<path d="M2200 1076 c0 -2 11 -6 25 -8 13 -3 22 -1 19 3 -5 9 -44 13 -44 5z"/>
<path d="M2266 1047 c3 -10 9 -15 12 -12 3 3 0 11 -7 18 -10 9 -11 8 -5 -6z"/>
<path d="M2275 1010 c-3 -5 -1 -10 4 -10 6 0 11 5 11 10 0 6 -2 10 -4 10 -3 0
-8 -4 -11 -10z"/>
<path d="M2620 971 c0 -6 -11 -11 -25 -11 -20 0 -25 -5 -25 -26 0 -19 4 -25
15 -20 9 3 19 -3 25 -14 6 -11 18 -20 28 -20 13 0 14 2 4 9 -9 5 -11 19 -7 43
4 22 3 38 -4 42 -6 4 -11 2 -11 -3z"/>
<path d="M2642 825 c0 -16 2 -22 5 -12 2 9 2 23 0 30 -3 6 -5 -1 -5 -18z"/>
</g>
</svg>
